<svg xmlns="http://www.w3.org/2000/svg" width="1080" height="360" viewBox="0 0 1080 360">
  <circle cx="244" cy="92" r="34" fill="#F5A623"/>
  <path d="M50 286 156 144l40 45 63-105 148 202H50Z" fill="#0F5132"/>
  <path d="m260 147-49 68h30l-36 47h37v58h36v-58h37l-36-47h29l-48-68z" fill="#F8F7EF"/>
  <path d="M49 281c58-10 118-4 178 37-51 42-133 38-178-37Z" fill="#688F58"/>
  <path d="M224 318c52-41 117-55 183-39-50 79-128 85-183 39Z" fill="#F5A623"/>
  <text x="450" y="265" fill="#0F5132" font-family="Arial, sans-serif" font-size="220" font-weight="700" letter-spacing="-8">Kito</text>
</svg>
